<?xml version="1.0" encoding="utf-8"?>
<!-- Generator: Adobe Illustrator 19.2.1, SVG Export Plug-In . SVG Version: 6.00 Build 0)  -->
<!DOCTYPE svg PUBLIC "-//W3C//DTD SVG 1.1//EN" "http://www.w3.org/Graphics/SVG/1.1/DTD/svg11.dtd">
<svg version="1.1" id="Layer_1" xmlns="http://www.w3.org/2000/svg" xmlns:xlink="http://www.w3.org/1999/xlink" x="0px" y="0px"
	 viewBox="0 0 1084.2 147" style="enable-background:new 0 0 1084.2 147;" xml:space="preserve">
<style type="text/css">
	.st0{fill:#FFFFFF;}
	.st1{fill:#A50000;}
</style>
<title>Blogo_rgb_Hor</title>
<path class="st0" d="M29.2,121.4l30.9,12.5l30.8-12.4c15.2-5.9,25.1-20.5,25.1-36.8V19.8C83.3-6.4,37-6.5,4.2,19.3v65.3
	C4.1,100.9,14.1,115.5,29.2,121.4z"/>
<path class="st1" d="M30.5,118l29.5,11.9L89.6,118c13.8-5.3,22.8-18.6,22.7-33.4V21.5C81.6-2.2,38.7-2.4,7.8,21.2v63.5
	C7.7,99.4,16.8,112.6,30.5,118z M59.9,9.4c16.7,0,33.1,5.2,46.7,15v60.2c0.1,12.4-7.5,23.5-19,28l-27.4,11l-27.5-11
	c-11.5-4.5-19.1-15.6-19.1-28V24.1C27.1,14.5,43.3,9.3,59.9,9.4z"/>
<path class="st1" d="M88.6,35.8L78.2,25.5H31.1V36l4.7,4.1v49.3l-4.7,4.1v10.7h47.1l10.4-10.4V69.8l-5-5l5-5V35.8L88.6,35.8z
	 M54.7,56.4V42.2h14.9v14.2H54.7z M54.7,87.3V73.1h14.9v14.2H54.7z"/>
<path class="st0" d="M81.5,37.5l-5.9-5.8H37.9l5,4.4v57.4l-5,4.5h37.7l5.9-5.9V69.2L77,64.7l4.5-4.5L81.5,37.5L81.5,37.5z
	 M47.7,36.1h29v26.6h-29C47.7,62.7,47.7,36.1,47.7,36.1z M76.7,93.5h-29V67h29C76.7,67,76.7,93.5,76.7,93.5z"/>
<path class="st0" d="M171.9,63.1c12.6-0.2,19.5-6.4,19.5-17.3c0-11.6-7.7-19.5-21.6-19.5h-35.9v6h8.6V98h-8.6v6H172
	c14.6,0,23.1-8.7,23.1-21.2S186.7,63.6,171.9,63.1z M156.7,32.3h7.8c7.1,0,11.8,6.8,11.8,14.7c0,7.6-5,13.9-11.6,13.9h-8L156.7,32.3
	L156.7,32.3z M164.5,98h-7.8V66.8h8.3c9.1,0,15.1,6,15.1,15.2C180.1,91.6,174.8,98,164.5,98L164.5,98z"/>
<path class="st0" d="M398.4,26.2H363v6h8.6V98H363v6h35.3c11.1,0,19.2-4.6,26.3-11.4c7.6-7.2,11.9-17.2,11.9-27.7
	C436.5,44,419.8,26.2,398.4,26.2z M395.4,98h-9.2V32.3h9.6c13.3,0,24.6,16.1,24.6,32.8C420.5,82.8,409.7,98,395.4,98z"/>
<polygon class="st0" points="492.7,98 468.5,98 468.5,32.3 477,32.3 477,26.2 445.3,26.2 445.3,32.3 453.9,32.3 453.9,98 445.3,98 
	445.3,104.1 498.8,104.1 498.8,87.5 492.7,87.5 "/>
<polygon class="st0" points="558.6,98 533.9,98 533.9,67.9 552.1,67.9 552.1,75.8 558.2,75.7 558.2,53.4 552.1,53.5 552.1,61.2 
	533.9,61.2 533.9,32.3 557.5,32.3 557.5,42.6 563.6,42.6 563.6,26.2 510.7,26.2 510.7,32.3 519.3,32.3 519.3,98 510.7,98 
	510.7,104.1 564.7,104.1 564.7,87.5 558.6,87.5 "/>
<polygon class="st0" points="619.5,26.2 619.5,32.3 629.3,32.3 614.1,57.3 597.8,32.3 606.4,32.3 606.4,26.2 574.6,26.2 574.6,32.3 
	581.6,32.3 604.2,66.5 604.2,97.8 595.7,97.8 595.7,104.1 627.5,104.1 627.5,97.8 618.8,97.8 618.8,63.6 637.9,32.3 645.9,32.3 
	645.9,26.2 "/>
<path class="st0" d="M320.9,26.2h-8.8L283.7,98h-10.2c-2.3-0.2-3.6-1.4-6.2-5.3L251.2,68c10.7-3.3,15.1-9.9,15.1-20.1
	c0,0,1.2-21.6-24.8-21.6h-32.3v6h8.6v65.8h-8.6v6h31.2v-6h-8.5V69.2h4.7l18.3,28.1c3.9,6,5,6.7,11.6,6.7h33.8v-6h-9.2l7.5-19h27.2
	l7.4,19h-8v6h30.6v-6h-7.6L320.9,26.2z M238.6,63.6h-6.7V32.3h7.2c8,0,12.7,6.6,12.7,15.6S246.4,63.6,238.6,63.6L238.6,63.6z
	 M301.3,72.6l11.5-28.3l10.8,28.3H301.3z"/>
<path class="st0" d="M730.8,43.8v36.6c0,10.3-3.6,16.9-11.6,21.3c-4.1,2.2-8.7,3.3-13.3,3.3c-13.9,0-24.2-9.2-24.2-21.8V43.8h-7.2
	v-3.6h22.9v3.6h-7.2v36.4c0,11.6,6.8,19.2,17.5,19.2c11,0,18.3-7.8,18.3-19.3V43.8h-7.2v-3.6h19.3v3.6H730.8L730.8,43.8z"/>
<path class="st0" d="M769.1,103.7v-3.6h7.2V72c0-5.1-2.6-8.3-6.8-8.3c-4.2,0-6.5,1.8-15,11.4V100h7.3v3.6h-21.8V100h7.3V65.5h-8.3
	v-2.6l13.8-3.7h1.7V70c7.2-8.3,11.3-11,17.5-11c7.1,0,11.5,4.6,11.5,12v29.1h7.2v3.6H769.1z"/>
<path class="st0" d="M796.5,103.7v-3.6h7.3V65.5h-8.3v-2.6l13.7-3.7h1.7v41h7.3v3.6L796.5,103.7L796.5,103.7z M807,47.7
	c-2.8-0.1-4.9-2.4-4.9-5.1c0.1-2.8,2.4-4.9,5.1-4.9c2.7,0.1,4.8,2.2,4.9,4.9c0.1,2.8-2.1,5-4.9,5.1C807.2,47.7,807.1,47.7,807,47.7z
	"/>
<path class="st0" d="M857.5,63.7l-15.7,41.3h-1.9L823,63.8l-4-0.1v-3.6h18.7v3.6H831l11.4,28.4l10.8-28.4h-6.4v-3.6h14.8v3.6H857.5z
	"/>
<path class="st0" d="M870.4,79.1v1.1c0,12,6.3,20.4,15.5,20.4c3.8,0,6.5-0.9,11.8-4.4l1.8,3.6c-7.2,4.1-10.6,5.3-16.2,5.3
	c-12.2,0-20.9-9.4-20.9-22.7S871.3,59,883.2,59c10.4,0,17.5,7.1,17.5,17.5v2.6L870.4,79.1L870.4,79.1z M892.9,72.9
	c0.4-5.1-3.5-9.6-8.7-10c-0.3,0-0.6,0-0.8,0c-7,0-11.9,4.7-12.8,12.2h22.3V72.9L892.9,72.9z"/>
<path class="st0" d="M934.8,69.2c-1.9-1.8-3.3-2.7-4.2-2.7c-1.7,0-3.5,1.7-8.7,8.1v25.6h9.2v3.6h-23.8v-3.6h7.3V65.5h-8.3v-2.6
	l13.8-3.7h1.7V70c6.9-8.8,9.4-11,12.9-11c1-0.1,1.9,0.2,2.7,0.9l3,2.6L934.8,69.2z"/>
<path class="st0" d="M961.1,104.9c-5.4,0-9.4-1.2-12.2-3.8v3.5h-3.8V90.8h4.4v2.6c0,4.1,5.4,7.8,11.3,7.8c5.3,0,9.2-2.8,9.2-6.7
	s-2.7-6-12.8-10c-9.2-3.6-12.5-7.1-12.5-13.2c0-7.5,6.1-12.6,15-12.6c3.7-0.2,7.3,1,10.2,3.3l0.6-3.5h4.1l-2.3,13.9h-4.1
	c0.4-1,0.6-2.1,0.6-3.2c0-3.7-4.3-6.8-9.5-6.8c-5.2,0-8.3,2.7-8.3,6.8c0,4.1,0.7,4.6,12.3,9.3c9.4,3.7,12.4,6.9,12.4,13.1
	C975.7,99.6,969.7,104.9,961.1,104.9z"/>
<path class="st0" d="M983.1,103.7v-3.6h7.4V65.5h-8.3v-2.6l13.9-3.7h1.7v41h7.3v3.6H983.1z M993.6,47.7c-2.8-0.1-4.9-2.3-4.9-5.1
	c0.1-2.8,2.3-4.9,5.1-4.9c2.7,0.1,4.8,2.2,4.9,4.9c0.1,2.8-2.1,5-4.9,5.1C993.8,47.7,993.7,47.7,993.6,47.7z"/>
<path class="st0" d="M1063,60.1v3.6h6.4l-10.8,28.4L1047,63.7h6.8v-3.6h-31.8V47.6h-6.9v12.6h-8.3v3.6h8.3v31.6
	c0,5.9,3.3,9.3,8.9,9.3c3.6,0,5.5-0.9,10.6-5l-1.7-2.6c-3.3,1.9-4.5,2.3-6.5,2.3c-3.2,0-4.4-1.3-4.4-5V63.7h17.1l15.6,38.2
	c-1.4,4.2-3.5,8.2-6.2,11.7c-3,3.8-4.8,5.3-10.1,8.3l6.3,6.4c1.7-2.3,3-4,3.9-5.2c3.6-5.4,6.6-11.2,8.9-17.2l16.2-42.2h4v-3.6
	L1063,60.1L1063,60.1z"/>
</svg>
